Coordinates
version=1
nRows=49
nColumns=12
inDegrees=yes

Units are S.I. units (second, meters, Newtons, ...)
Angles are in degrees

endheader
time	SC_y	SC_z	SC_x	AC_y	AC_z	AC_x	GH_y	GH_z	GH_yy	EL_x	PS_y
       0.0              -15.99          23.49          19.22          60.14         -14.31           18.6         -115.6          45.52         -67.43          103.7          49.78
   0.04307              -15.99          23.49          19.22          60.14         -14.31           18.6         -115.6          45.51         -67.42          103.7          49.79
   0.08614               -16.0          23.49          19.23          60.14         -14.31           18.6         -115.6          45.51         -67.41          103.7          49.81
    0.1292              -16.01          23.49          19.23          60.14         -14.31           18.6         -115.6           45.5          -67.4          103.7          49.82
    0.1723              -16.02          23.49          19.24          60.14         -14.31           18.6         -115.5          45.49         -67.38          103.7          49.84
    0.2154              -16.02          23.49          19.24          60.14         -14.31           18.6         -115.5          45.48         -67.37          103.7          49.86
    0.2584              -16.03          23.49          19.25          60.14         -14.31          18.59         -115.5          45.47         -67.36          103.6          49.88
    0.3015              -16.04          23.49          19.26          60.14         -14.31          18.59         -115.5          45.46         -67.34          103.6          49.91
    0.3446              -16.05          23.49          19.26          60.14          -14.3          18.59         -115.5          45.45         -67.33          103.6          49.93
    0.3876              -16.06          23.49          19.27          60.14          -14.3          18.59         -115.5          45.43         -67.31          103.6          49.96
    0.4307              -16.07          23.49          19.28          60.14          -14.3          18.58         -115.5          45.42         -67.29          103.6          49.99
    0.4738              -16.09          23.49          19.28          60.14          -14.3          18.58         -115.5          45.41         -67.27          103.6          50.02
    0.5169               -16.1          23.49          19.29          60.14          -14.3          18.58         -115.5          45.39         -67.25          103.6          50.05
    0.5599              -16.11          23.49           19.3          60.14          -14.3          18.57         -115.5          45.38         -67.23          103.6          50.08
     0.603              -16.13          23.49          19.31          60.13          -14.3          18.57         -115.5          45.36          -67.2          103.6          50.12
    0.6461              -16.15          23.49          19.32          60.13          -14.3          18.56         -115.5          45.34         -67.17          103.5          50.16
    0.6892              -16.16          23.49          19.33          60.13         -14.29          18.56         -115.5          45.32         -67.14          103.5          50.21
    0.7322              -16.18           23.5          19.35          60.13         -14.29          18.55         -115.5          45.29         -67.11          103.5          50.25
    0.7753              -16.21           23.5          19.36          60.13         -14.29          18.55         -115.5          45.27         -67.07          103.5          50.31
    0.8184              -16.23           23.5          19.38          60.13         -14.29          18.54         -115.5          45.24         -67.04          103.5          50.37
    0.8614              -16.25           23.5          19.39          60.13         -14.29          18.54         -115.5          45.21         -66.99          103.4          50.43
    0.9045              -16.28           23.5          19.41          60.13         -14.28          18.53         -115.5          45.18         -66.95          103.4           50.5
    0.9476              -16.31           23.5          19.43          60.13         -14.28          18.52         -115.5          45.14         -66.89          103.4          50.58
    0.9907              -16.35           23.5          19.46          60.13         -14.28          18.51         -115.4           45.1         -66.84          103.3          50.66
     1.034              -16.39          23.51          19.48          60.13         -14.27           18.5         -115.4          45.05         -66.77          103.3          50.76
     1.077              -16.43          23.51          19.51          60.13         -14.27          18.49         -115.4           45.0          -66.7          103.3          50.87
      1.12              -16.48          23.51          19.54          60.12         -14.26          18.48         -115.4          44.95         -66.62          103.2          50.98
     1.163              -16.54          23.51          19.58          60.12         -14.26          18.46         -115.4          44.88         -66.53          103.2          51.12
     1.206               -16.6          23.51          19.62          60.12         -14.25          18.45         -115.4          44.81         -66.43          103.1          51.27
     1.249              -16.67          23.52          19.66          60.12         -14.25          18.43         -115.3          44.73         -66.31          103.0          51.44
     1.292              -16.75          23.52          19.71          60.12         -14.24          18.41         -115.3          44.64         -66.18          103.0          51.64
     1.335              -16.84          23.53          19.77          60.11         -14.23          18.39         -115.3          44.53         -66.03          102.9          51.87
     1.378              -16.94          23.53          19.84          60.11         -14.22          18.36         -115.3          44.41         -65.86          102.8          52.13
     1.421              -17.07          23.54          19.92          60.11         -14.21          18.33         -115.2          44.26         -65.66          102.6          52.43
     1.464              -17.21          23.54          20.02           60.1         -14.19          18.29         -115.2          44.09         -65.42          102.5          52.78
     1.508              -17.38          23.55          20.13           60.1         -14.18          18.25         -115.1           43.9         -65.14          102.3           53.2
     1.551              -17.58          23.56          20.26          60.09         -14.16          18.19         -115.1          43.66         -64.81          102.2           53.7
     1.594              -17.83          23.57          20.42          60.08         -14.14          18.13         -115.0          43.38         -64.41          101.9          54.29
     1.637              -18.12          23.59          20.61          60.07         -14.11          18.05         -114.9          43.04         -63.93          101.6          55.01
      1.68              -18.48           23.6          20.84          60.06         -14.07          17.96         -114.8          42.62         -63.34          101.3          55.89
     1.723              -18.92          23.62          21.13          60.05         -14.03          17.85         -114.7          42.11         -62.61          100.9          56.98
     1.766              -19.47          23.65          21.49          60.03         -13.98          17.71         -114.5          41.47         -61.71          100.3          58.33
     1.809              -20.16          23.68          21.94          60.01         -13.91          17.53         -114.3          40.66         -60.57          99.68          60.03
     1.852              -21.04          23.72          22.51          59.98         -13.83           17.3         -114.0          39.63         -59.12          98.83           62.2
     1.895              -22.17          23.77          23.25          59.95         -13.72          17.01         -113.7          38.32         -57.26          97.75          64.97
     1.938              -23.62          23.84          24.19           59.9         -13.58          16.63         -113.2          36.63         -54.88          96.35          68.53
     1.981              -25.47          23.93          25.39          59.85         -13.41          16.16         -112.6          34.47         -51.84          94.58          73.08
     2.024               -27.8          24.04          26.91          59.78         -13.18          15.56         -111.9          31.76         -48.01          92.34           78.8
     2.067              -30.63          24.17          28.75          59.69         -12.91          14.82         -111.1          28.46         -43.35          89.62          85.76
